<svg xmlns="http://www.w3.org/2000/svg" viewBox="0 0 300 400">
  <!-- Background -->
  <rect width="300" height="400" fill="white"/>
  
  <!-- Definitions for gradients and clips -->
  <defs>
    <!-- Gradient for temperature section -->
    <linearGradient id="temperatureGradient" x1="0" x2="0" y1="0" y2="1">
      <stop offset="0%" style="stop-color:rgba(0,0,255,0)"/>
      <stop offset="100%" style="stop-color:rgba(0,0,255,0.3)"/>
    </linearGradient>
    <!-- Clip path for the cone -->
    <clipPath id="conePath">
      <path d="M80 50 L220 50 L150 350 Z"/>
    </clipPath>
  </defs>
  
  <!-- Left Y-axis -->
  <line x1="60" y1="50" x2="60" y2="350" stroke="black" stroke-width="2"/>
  
  <!-- Left Y-axis title -->
  <text x="15" y="200" text-anchor="middle" dominant-baseline="middle" transform="rotate(-90, 15, 200)">Top-P</text>
  
  <!-- Left Y-axis labels -->
  <text x="50" y="350" text-anchor="end" dominant-baseline="middle">0.0</text>
  <text x="50" y="320" text-anchor="end" dominant-baseline="middle">0.1</text>
  <text x="50" y="290" text-anchor="end" dominant-baseline="middle">0.2</text>
  <text x="50" y="260" text-anchor="end" dominant-baseline="middle">0.3</text>
  <text x="50" y="230" text-anchor="end" dominant-baseline="middle">0.4</text>
  <text x="50" y="200" text-anchor="end" dominant-baseline="middle">0.5</text>
  <text x="50" y="170" text-anchor="end" dominant-baseline="middle">0.6</text>
  <text x="50" y="140" text-anchor="end" dominant-baseline="middle">0.7</text>
  <text x="50" y="110" text-anchor="end" dominant-baseline="middle">0.8</text>
  <text x="50" y="80" text-anchor="end" dominant-baseline="middle">0.9</text>
  <text x="50" y="50" text-anchor="end" dominant-baseline="middle">1.0</text>
  
  <!-- Right Y-axis title -->
  <text x="275" y="200" text-anchor="middle" dominant-baseline="middle" transform="rotate(90, 275, 200)">Temperature</text>
  
  <!-- Token Pool label -->
  <text x="150" y="30" text-anchor="middle" font-weight="bold" font-size="14">Token Pool</text>
  
  <!-- Gradients inside cone -->
  <g clip-path="url(#conePath)">
    <!-- Gray section above 0.7 -->
    <rect x="80" y="50" width="140" height="90" fill="#E0E0E0"/>
    <!-- Temperature gradient section below 0.7 -->
    <rect x="80" y="140" width="140" height="210" fill="url(#temperatureGradient)"/>
  </g>
  
  <!-- Cone outline -->
  <path d="M80 50 L220 50 L150 350 Z" fill="none" stroke="black" stroke-width="2"/>
  
  <!-- Top-P cutoff line -->
  <line x1="60" y1="140" x2="80" y2="140" stroke="black" stroke-width="2" stroke-dasharray="5,5"/>
  
  <!-- Temperature label -->
  <text x="205" y="203" text-anchor="start" dominant-baseline="middle">T=0.7</text>
</svg>
